<?xml version="1.0" encoding="utf-8"?><!-- Uploaded to: SVG Repo, www.svgrepo.com, Generator: SVG Repo Mixer Tools -->
<svg width="800px" height="800px" viewBox="0 0 24 24" fill="none" xmlns="http://www.w3.org/2000/svg">
<path fill-rule="evenodd" clip-rule="evenodd" d="M4.86261 5.07032L5.59077 4.5L18.409 4.5L19.1371 5.07032L21.728 15.5703L20.9999 16.5L12.7499 16.5L12.7499 18.75L15.7499 18.75L15.7499 20.25L8.24991 20.25L8.24991 18.75L11.2499 18.75L11.2499 16.5L2.99986 16.5L2.2717 15.5703L4.86261 5.07032ZM6.1782 6L5.25288 9.75L8.95789 9.75L9.88321 6L6.1782 6ZM3.95742 15L4.88275 11.25L8.58776 11.25L7.66243 15L3.95742 15ZM9.20742 15L10.1327 11.25L14.2079 11.25L15.1332 15L9.20742 15ZM12.9124 6L13.8378 9.75L10.5029 9.75L11.4282 6L12.9124 6ZM14.4574 6L15.3827 9.75L18.7469 9.75L17.8215 6L14.4574 6ZM16.6782 15L15.7529 11.25L19.117 11.25L20.0423 15L16.6782 15Z" fill="#080341"/>
</svg>